<svg width="800" height="800" viewBox="0 0 800 800" fill="none" xmlns="http://www.w3.org/2000/svg">
	<circle cx="400" cy="400" r="390" fill="none"/>
  <rect width="800" height="800" rx="97" fill="none"/>
  <path d="M32.4929 219.635C25.5146 205.951 26.9887 189.48 36.2859 177.252L46.7006 163.555C58.5962 147.91 80.0951 143.225 97.4216 152.502L166.423 189.444C173.63 193.303 179.481 199.277 183.19 206.562L379.889 592.954C393.468 619.628 374.014 651.219 344.083 651.1L276.73 650.832C261.751 650.772 248.061 642.349 241.256 629.004L32.4929 219.635Z" fill="#18477C" stroke="white" stroke-width="2"/>
  <path d="M242.497 214.75C235.575 201.175 236.966 184.846 246.086 172.639L255.684 159.791C267.615 143.821 289.484 139.073 306.963 148.658L375.267 186.116C382.315 189.98 388.034 195.878 391.681 203.041L589.904 592.419C603.553 619.231 583.829 650.948 553.745 650.563L488.307 649.726C473.456 649.536 459.932 641.133 453.185 627.901L242.497 214.75Z" fill="#18477C" stroke="white" stroke-width="2"/>
  <path d="M650.569 162.955C656.912 148.862 670.806 139.685 686.257 139.38L703.478 139.042C719.069 138.735 733.417 147.517 740.237 161.541L764.595 211.631C769.758 222.248 769.967 234.603 765.166 245.389L659.811 482.099C646.345 512.354 604.049 514.076 588.167 485.017L552.435 419.638C546.425 408.642 545.916 395.464 551.06 384.037L650.569 162.955Z" fill="#18477C" stroke="white" stroke-width="2"/>
  <rect x="474.844" y="651" width="1" height="1" fill="#D9D9D9"/>
</svg>